<?xml version="1.0" standalone="no"?><!DOCTYPE svg PUBLIC "-//W3C//DTD SVG 1.1//EN" "http://www.w3.org/Graphics/SVG/1.1/DTD/svg11.dtd"><svg t="1689878020713" class="icon" viewBox="0 0 1024 1024" version="1.1" xmlns="http://www.w3.org/2000/svg" p-id="4525" width="200" height="200" data-spm-anchor-id="a313x.7781069.0.i3" xmlns:xlink="http://www.w3.org/1999/xlink"><path d="M818.8864 908.8h-613.76A141.0624 141.0624 0 0 1 64 768.096V371.7952a141.0688 141.0688 0 0 1 141.1072-140.7168h160.5312a22.3488 22.3488 0 0 0 19.0016-10.4896l40.8768-64.9472A86.144 86.144 0 0 1 498.8736 115.2h166.5088a86.944 86.944 0 0 1 69.9776 35.4816l52.0128 71.1872a22.5664 22.5664 0 0 0 18.1568 9.2096h13.3568A141.0688 141.0688 0 0 1 960 371.7952v115.4304a32.0576 32.0576 0 0 1-64.1152 0V371.7952a76.9664 76.9664 0 0 0-76.9856-76.8h-13.3568a86.9376 86.9376 0 0 1-69.9712-35.488l-52.0512-71.168a22.5536 22.5536 0 0 0-18.1568-9.2096H498.8736a22.3552 22.3552 0 0 0-19.0208 10.496L438.976 254.5728A86.1568 86.1568 0 0 1 365.6384 295.04H205.1072a76.9664 76.9664 0 0 0-76.9856 76.8v396.3072a76.9728 76.9728 0 0 0 76.9856 76.8h613.76a76.9664 76.9664 0 0 0 76.9856-76.8V656.64a32.0576 32.0576 0 0 1 64.1152 0v111.4432A141.0624 141.0624 0 0 1 818.8864 908.8zM296.96 411.168H213.6064a32 32 0 1 1 0-63.936H296.96a32 32 0 1 1 0 63.936z" fill="#1afa29" p-id="4526"></path><path d="M598.6944 780.8a228.1024 228.1024 0 0 1-204.8512-129.408q-2.4128-5.056-4.5888-10.24a32.1152 32.1152 0 1 1 59.2576-24.832q1.5552 3.7184 3.2832 7.3408a162.8736 162.8736 0 1 0-3.9296-131.2 159.488 159.488 0 0 0-3.6992 10.0928 32.1088 32.1088 0 1 1-60.992-20.0896c1.5488-4.7296 3.296-9.4848 5.184-14.144A226.9696 226.9696 0 1 1 598.6944 780.8z" fill="#1afa29" p-id="4527"></path></svg>